<svg width="159" height="103" viewBox="0 0 159 103" fill="none" xmlns="http://www.w3.org/2000/svg">
<path d="M136.7 0.999924H98.124C105.669 5.20053 107.639 12.5562 107.639 19.0749C107.639 19.7086 107.623 20.3634 107.583 21.0366H128.26C132.587 21.0366 134.746 23.1409 134.746 27.3653C134.746 28.4662 134.588 29.6279 134.295 30.8213L125.245 73.3185C123.838 79.8451 120.482 83.1031 115.152 83.1031H94.4992C94.3567 83.5071 94.222 83.9031 94.0795 84.2807C91.8724 90.4034 88.5117 95.3644 84.0976 99.0264C82.1994 100.6 80.0874 101.923 77.7853 102.997H115.152C124.194 102.997 131.375 100.782 136.7 96.3677C142.025 91.9453 145.583 85.4662 147.402 76.9303L158.097 27.0616C158.699 24.2524 159 21.5884 159 19.0723C159 7.02493 151.563 0.997284 136.702 0.997284L136.7 0.999924ZM80.4517 0.999924H21.5478L17.3238 21.0366H72.133C76.3729 21.0762 78.4928 23.1805 78.4928 27.3653C78.4928 27.7613 78.477 28.1573 78.4374 28.5586C78.3661 29.2953 78.2394 30.0451 78.0414 30.8213L68.9993 73.3185C67.6001 79.7897 64.2764 83.0556 59.0412 83.1031H26.8146L38.4175 28.5586H15.811L0 103H58.9066C67.9486 103 75.1295 100.785 80.4544 96.3703C84.4091 93.0885 87.3923 88.6661 89.4014 83.1031C90.1062 81.189 90.6818 79.1243 91.1491 76.9329L101.852 27.0643C102.295 24.9679 102.572 22.9587 102.689 21.0366C102.728 20.3713 102.744 19.7165 102.744 19.0749C102.744 7.02757 95.3071 0.999924 80.4517 0.999924Z" fill="white"/>
</svg>
