<svg width="31" height="31" viewBox="0 0 31 31" fill="none" xmlns="http://www.w3.org/2000/svg">
<path fill-rule="evenodd" clip-rule="evenodd" d="M15.5 31C24.0604 31 31 24.0604 31 15.5C31 6.9396 24.0604 0 15.5 0C6.9396 0 0 6.9396 0 15.5C0 24.0604 6.9396 31 15.5 31ZM17.7831 8.9909C19.0015 9.20213 20.1668 9.571 21.2535 10.0717C21.263 10.0757 21.271 10.0825 21.2757 10.092C23.2011 12.9355 24.1521 16.1431 23.7966 19.8358C23.7953 19.8514 23.7872 19.8657 23.7744 19.8752C22.3161 20.9505 20.9034 21.6033 19.5103 22.036C19.4881 22.0428 19.4639 22.0346 19.4504 22.0156C19.1285 21.5659 18.8362 21.0918 18.5801 20.5939C18.5653 20.5647 18.5788 20.5293 18.609 20.5178C19.0734 20.3418 19.515 20.1312 19.9397 19.882C19.9733 19.8623 19.9753 19.814 19.9444 19.7909C19.8544 19.7237 19.7649 19.653 19.6796 19.5824C19.6635 19.5695 19.642 19.5668 19.6238 19.5756C16.8664 20.8547 13.8455 20.8547 11.0552 19.5756C11.037 19.5674 11.0155 19.5702 11.0001 19.5831C10.9147 19.6537 10.8253 19.7237 10.7359 19.7909C10.705 19.814 10.7077 19.8623 10.7413 19.882C11.166 20.1265 11.6076 20.3418 12.0713 20.5185C12.1015 20.53 12.1157 20.5647 12.1009 20.5939C11.8502 21.0925 11.5579 21.5666 11.2299 22.0163C11.2158 22.0346 11.1923 22.0428 11.1701 22.036C9.78366 21.6033 8.37099 20.9505 6.91263 19.8752C6.90054 19.8657 6.8918 19.8507 6.89046 19.8351C6.59342 16.6411 7.19894 13.4069 9.40931 10.0913C9.41467 10.0825 9.42273 10.0757 9.43215 10.0717C10.5195 9.57032 11.6849 9.20148 12.9026 8.9909C12.9248 8.98749 12.947 8.99769 12.9584 9.01737C13.1089 9.28503 13.281 9.62807 13.3973 9.90859C14.6809 9.71162 15.9847 9.71162 17.2951 9.90859C17.4114 9.63418 17.5774 9.28503 17.7273 9.01737C17.7387 8.99701 17.7609 8.98681 17.7831 8.9909ZM10.9853 16.1649C10.9853 17.1159 11.6775 17.8903 12.5176 17.8903C13.371 17.8903 14.0498 17.1159 14.0498 16.1649C14.0633 15.2207 13.3778 14.4395 12.5176 14.4395C11.6641 14.4395 10.9853 15.2139 10.9853 16.1649ZM16.6507 16.1649C16.6507 17.1159 17.3429 17.8903 18.1829 17.8903C19.0432 17.8903 19.7152 17.1159 19.7152 16.1649C19.7286 15.2207 19.0432 14.4395 18.1829 14.4395C17.3294 14.4395 16.6507 15.2139 16.6507 16.1649Z" fill="white"/>
</svg>
