<svg width="33" height="31" viewBox="0 0 33 31" fill="none" xmlns="http://www.w3.org/2000/svg">
<path d="M2.21336 7.91328C3.68884 5.47889 5.69023 3.55159 8.21805 2.13092C10.7463 0.710187 13.5063 0 16.5002 0C19.4936 0 22.2546 0.710404 24.7822 2.13092C27.3103 3.55151 29.3116 5.47889 30.7871 7.91328C32.2623 10.3476 33 13.0059 33 15.8881C33 19.3503 31.951 22.4635 29.8526 25.2287C27.7543 27.9941 25.0437 29.9076 21.721 30.9695C21.3342 31.0387 21.0479 30.99 20.8617 30.8249C20.6755 30.6595 20.5825 30.4525 20.5825 30.2045C20.5825 30.1631 20.5862 29.7909 20.5933 29.0874C20.6007 28.3838 20.6041 27.7701 20.6041 27.2464L21.0983 27.3287C21.4134 27.3843 21.8108 27.4079 22.2907 27.4012C22.7703 27.3948 23.2682 27.3464 23.7838 27.2564C24.2995 27.1672 24.7792 26.9603 25.2233 26.6362C25.6671 26.3121 25.9822 25.8878 26.1684 25.364L26.3832 24.888C26.5264 24.571 26.7519 24.219 27.0599 23.833C27.3679 23.4467 27.6793 23.1849 27.9944 23.047L28.1448 22.9433C28.245 22.8744 28.338 22.7913 28.4241 22.6948C28.51 22.5984 28.5743 22.5019 28.6173 22.4052C28.6603 22.3085 28.6247 22.2291 28.5099 22.1669C28.3952 22.1046 28.1878 22.0744 27.8869 22.0744L27.4573 22.1362C27.1709 22.1915 26.8165 22.3566 26.3938 22.6326C25.9714 22.9084 25.6241 23.267 25.352 23.7081C25.0224 24.2737 24.6253 24.7047 24.1596 25.0013C23.6942 25.2979 23.225 25.4459 22.7525 25.4459C22.2799 25.4459 21.8718 25.4114 21.5279 25.3428C21.1844 25.2738 20.8621 25.1701 20.5612 25.0323C20.4323 24.1079 20.0813 23.3977 19.5086 22.9013C20.3249 22.8187 21.0588 22.6942 21.7107 22.5288C22.3622 22.3632 23.0354 22.0943 23.73 21.7216C24.4249 21.3494 25.0014 20.8871 25.4596 20.3357C25.9178 19.784 26.2939 19.0597 26.5873 18.1634C26.8809 17.2668 27.0277 16.2325 27.0277 15.0602C27.0277 13.3911 26.4618 11.9707 25.3303 10.7983C25.8603 9.54343 25.8103 8.13668 25.18 6.57819C24.7646 6.45392 24.1487 6.54718 23.3324 6.85738C22.5159 7.16773 21.9181 7.43359 21.5384 7.65402C21.1587 7.87437 20.8545 8.0611 20.6253 8.21254C19.293 7.85408 17.9181 7.67481 16.5003 7.67481C15.0825 7.67481 13.7073 7.85408 12.3749 8.21254L11.5586 7.71626C11.0003 7.38512 10.341 7.08165 9.58239 6.80579C8.82328 6.53008 8.24281 6.45414 7.84159 6.57841C7.19731 8.13697 7.13989 9.54365 7.6701 10.7985C6.53866 11.9709 5.97256 13.3917 5.97256 15.0604C5.97256 16.2327 6.1199 17.2703 6.41299 18.1738C6.70646 19.0774 7.08579 19.801 7.55113 20.3461C8.01699 20.8911 8.59716 21.3497 9.2917 21.7218C9.9864 22.0943 10.6599 22.3631 11.3114 22.5287C11.9632 22.6944 12.6971 22.8189 13.5134 22.9016C12.7689 23.522 12.3965 24.5013 12.3965 25.8391V30.2039C12.3965 30.4519 12.307 30.6589 12.1278 30.8243C11.9487 30.9895 11.666 31.0381 11.2792 30.9689C7.95604 29.9071 5.24543 27.9935 3.14727 25.2281C1.04934 22.4629 0 19.3497 0 15.8875C0.000751495 13.0057 0.738792 10.3476 2.21336 7.91328Z" fill="white"/>
</svg>
