<svg width="96" height="96" viewBox="0 0 96 96" fill="none" xmlns="http://www.w3.org/2000/svg">
<circle cx="48" cy="48" r="48" fill="#D9D9D9"/>
<path d="M22.0816 56V39.2H23.8576V54.464H33.2656V56H22.0816ZM40.0829 56.12C38.8669 56.12 37.7709 55.848 36.7949 55.304C35.8349 54.744 35.0749 53.984 34.5149 53.024C33.9549 52.048 33.6749 50.936 33.6749 49.688C33.6749 48.424 33.9549 47.312 34.5149 46.352C35.0749 45.392 35.8349 44.64 36.7949 44.096C37.7549 43.552 38.8509 43.28 40.0829 43.28C41.3309 43.28 42.4349 43.552 43.3949 44.096C44.3709 44.64 45.1309 45.392 45.6749 46.352C46.2349 47.312 46.5149 48.424 46.5149 49.688C46.5149 50.936 46.2349 52.048 45.6749 53.024C45.1309 53.984 44.3709 54.744 43.3949 55.304C42.4189 55.848 41.3149 56.12 40.0829 56.12ZM40.0829 54.608C40.9949 54.608 41.8029 54.408 42.5069 54.008C43.2109 53.592 43.7629 53.016 44.1629 52.28C44.5789 51.528 44.7869 50.664 44.7869 49.688C44.7869 48.696 44.5789 47.832 44.1629 47.096C43.7629 46.36 43.2109 45.792 42.5069 45.392C41.8029 44.976 41.0029 44.768 40.1069 44.768C39.2109 44.768 38.4109 44.976 37.7069 45.392C37.0029 45.792 36.4429 46.36 36.0269 47.096C35.6109 47.832 35.4029 48.696 35.4029 49.688C35.4029 50.664 35.6109 51.528 36.0269 52.28C36.4429 53.016 37.0029 53.592 37.7069 54.008C38.4109 54.408 39.2029 54.608 40.0829 54.608ZM54.6498 60.776C53.4978 60.776 52.3938 60.608 51.3378 60.272C50.2818 59.936 49.4258 59.456 48.7698 58.832L49.6338 57.536C50.2258 58.064 50.9538 58.48 51.8178 58.784C52.6978 59.104 53.6258 59.264 54.6018 59.264C56.2018 59.264 57.3778 58.888 58.1298 58.136C58.8818 57.4 59.2578 56.248 59.2578 54.68V51.536L59.4978 49.376L59.3298 47.216V43.4H60.9618V54.464C60.9618 56.64 60.4258 58.232 59.3538 59.24C58.2978 60.264 56.7298 60.776 54.6498 60.776ZM54.3378 55.52C53.1378 55.52 52.0578 55.264 51.0978 54.752C50.1378 54.224 49.3778 53.496 48.8178 52.568C48.2738 51.64 48.0018 50.576 48.0018 49.376C48.0018 48.176 48.2738 47.12 48.8178 46.208C49.3778 45.28 50.1378 44.56 51.0978 44.048C52.0578 43.536 53.1378 43.28 54.3378 43.28C55.4578 43.28 56.4658 43.512 57.3618 43.976C58.2578 44.44 58.9698 45.128 59.4978 46.04C60.0258 46.952 60.2898 48.064 60.2898 49.376C60.2898 50.688 60.0258 51.8 59.4978 52.712C58.9698 53.624 58.2578 54.32 57.3618 54.8C56.4658 55.28 55.4578 55.52 54.3378 55.52ZM54.5058 54.008C55.4338 54.008 56.2578 53.816 56.9778 53.432C57.6978 53.032 58.2658 52.488 58.6818 51.8C59.0978 51.096 59.3058 50.288 59.3058 49.376C59.3058 48.464 59.0978 47.664 58.6818 46.976C58.2658 46.288 57.6978 45.752 56.9778 45.368C56.2578 44.968 55.4338 44.768 54.5058 44.768C53.5938 44.768 52.7698 44.968 52.0338 45.368C51.3138 45.752 50.7458 46.288 50.3298 46.976C49.9298 47.664 49.7298 48.464 49.7298 49.376C49.7298 50.288 49.9298 51.096 50.3298 51.8C50.7458 52.488 51.3138 53.032 52.0338 53.432C52.7698 53.816 53.5938 54.008 54.5058 54.008ZM70.1195 56.12C68.9035 56.12 67.8075 55.848 66.8315 55.304C65.8715 54.744 65.1115 53.984 64.5515 53.024C63.9915 52.048 63.7115 50.936 63.7115 49.688C63.7115 48.424 63.9915 47.312 64.5515 46.352C65.1115 45.392 65.8715 44.64 66.8315 44.096C67.7915 43.552 68.8875 43.28 70.1195 43.28C71.3675 43.28 72.4715 43.552 73.4315 44.096C74.4075 44.64 75.1675 45.392 75.7115 46.352C76.2715 47.312 76.5515 48.424 76.5515 49.688C76.5515 50.936 76.2715 52.048 75.7115 53.024C75.1675 53.984 74.4075 54.744 73.4315 55.304C72.4555 55.848 71.3515 56.12 70.1195 56.12ZM70.1195 54.608C71.0315 54.608 71.8395 54.408 72.5435 54.008C73.2475 53.592 73.7995 53.016 74.1995 52.28C74.6155 51.528 74.8235 50.664 74.8235 49.688C74.8235 48.696 74.6155 47.832 74.1995 47.096C73.7995 46.36 73.2475 45.792 72.5435 45.392C71.8395 44.976 71.0395 44.768 70.1435 44.768C69.2475 44.768 68.4475 44.976 67.7435 45.392C67.0395 45.792 66.4795 46.36 66.0635 47.096C65.6475 47.832 65.4395 48.696 65.4395 49.688C65.4395 50.664 65.6475 51.528 66.0635 52.28C66.4795 53.016 67.0395 53.592 67.7435 54.008C68.4475 54.408 69.2395 54.608 70.1195 54.608Z" fill="#130826"/>
</svg>
