<svg width="31" height="31" viewBox="0 0 31 31" fill="none" xmlns="http://www.w3.org/2000/svg">
<path d="M15.5 0C6.93891 0 0 6.93891 0 15.5C0 24.0611 6.93891 31 15.5 31C24.0611 31 31 24.0611 31 15.5C31 6.93891 24.0611 0 15.5 0ZM23.4479 20.483C23.4479 21.7016 23.2539 21.9111 22.2526 21.9111H8.74737C7.7694 21.9111 7.55208 21.6705 7.55208 20.483V11.9374C7.55208 11.9374 14.817 17.9837 15.5155 18.2787C16.2141 17.9682 23.4479 11.9374 23.4479 11.9374V20.483ZM15.5155 16.6875C14.7471 16.3615 7.5676 10.4549 7.5676 10.4549L7.55208 10.323C7.55208 9.46144 7.75388 9.08888 8.74737 9.08888H22.2526C23.2228 9.08888 23.4324 9.39935 23.4324 10.2609L23.4479 10.323C23.4479 10.323 16.3227 16.315 15.5155 16.6875Z" fill="white"/>
</svg>
