<svg width="31" height="31" viewBox="0 0 31 31" fill="none" xmlns="http://www.w3.org/2000/svg">
<path fill-rule="evenodd" clip-rule="evenodd" d="M15.5 31C24.0604 31 31 24.0604 31 15.5C31 6.9396 24.0604 0 15.5 0C6.9396 0 0 6.9396 0 15.5C0 24.0604 6.9396 31 15.5 31ZM22.3129 9.90276C22.4324 8.54493 20.9986 9.10402 20.9986 9.10402C19.9398 9.5423 18.848 9.98767 17.7443 10.4379C14.3222 11.8337 10.7868 13.2758 7.77514 14.6951C6.14212 15.2942 7.09804 15.8932 7.09804 15.8932L9.68697 16.6919C10.8818 17.0514 11.5191 16.652 11.5191 16.652L17.0953 12.8581C19.0867 11.5002 18.6088 12.6185 18.1308 13.0977L13.9487 17.0913C13.3114 17.6504 13.6301 18.1297 13.9089 18.3693C14.6991 19.0665 16.6428 20.342 17.4915 20.8989C17.7123 21.0438 17.8589 21.1401 17.8918 21.1648C18.091 21.3246 19.1664 22.0434 19.8833 21.8837C20.6003 21.7239 20.6799 20.8054 20.6799 20.8054L21.6358 14.5354C21.7792 13.4469 21.9437 12.4006 22.075 11.565C22.1991 10.7757 22.2936 10.1744 22.3129 9.90276Z" fill="white"/>
</svg>
